<?xml version="1.0" standalone="no"?><!DOCTYPE svg PUBLIC "-//W3C//DTD SVG 1.1//EN" "http://www.w3.org/Graphics/SVG/1.1/DTD/svg11.dtd"><svg t="1745571679148" class="icon" viewBox="0 0 1024 1024" version="1.1" xmlns="http://www.w3.org/2000/svg" p-id="4929" xmlns:xlink="http://www.w3.org/1999/xlink" width="200" height="200"><path d="M430.08 20.48H86.016c-40.448 0-57.344 24.064-57.344 57.344 0 98.304 0.512 260.096 0.512 336.896 0 40.448 20.992 65.024 56.832 65.024h344.576c40.448 0 57.344-15.36 57.344-57.344V77.824A56.448 56.448 0 0 0 430.08 20.48z m-58.368 239.616c-3.584 12.288-11.776 18.432-24.576 18.432h-179.2c-18.432 0-29.696-18.944-23.552-38.912 3.584-11.776 11.776-18.432 24.064-18.432h178.176c19.456 0.512 31.232 18.432 25.088 38.912zM946.688 20.48H602.112c-33.792 0-57.344 20.992-57.344 57.344V422.4c0 31.232 25.088 57.344 57.344 57.344h344.576c30.208 0 57.344-23.04 57.344-57.344V77.824c0-36.352-23.552-57.344-57.344-57.344z m-86.016 258.048h-57.344v57.344c0 11.264-13.824 28.672-28.672 28.672-12.8 0-28.672-12.8-28.672-28.672-0.512-34.816 0-57.344 0-57.344s-22.528 0.512-57.344 0c-11.264 0-28.672-13.312-28.672-28.672 0-12.288 13.824-28.672 28.672-28.672h57.344s-0.512-23.04 0-57.344c0-16.384 13.312-29.184 28.672-29.184 12.8 0 28.672 11.264 28.672 29.184v57.344s23.552-0.512 57.344 0c16.896 0 29.184 16.384 29.184 28.672 0 13.312-18.432 28.672-29.184 28.672zM430.08 537.088H85.504c-43.008 0-57.344 12.8-57.344 57.344v344.576c0 35.328 27.136 57.344 57.344 57.344H430.08c40.448 0 57.344-15.36 57.344-57.344V594.432a55.68 55.68 0 0 0-57.344-57.344z m-68.096 333.824c-13.312 12.8-31.744 13.312-45.056 0.512a2462.272 2462.272 0 0 1-51.712-51.712c-2.048-2.048-3.584-5.12-5.632-8.192-21.504 21.504-40.448 40.96-59.392 59.904-11.264 11.264-24.064 12.8-37.376 5.632-13.312-7.168-20.992-22.016-17.408-35.84a36.864 36.864 0 0 1 10.752-17.408c18.432-18.944 37.376-37.376 56.32-56.832a84.992 84.992 0 0 1-6.656-7.168c-17.408-17.92-35.328-35.328-52.736-53.248a30.208 30.208 0 0 1-3.072-38.4c8.704-13.312 24.576-19.456 37.888-14.336 5.12 2.048 10.24 6.144 14.336 9.728 18.944 18.432 37.376 37.376 57.344 57.856 5.12-6.144 9.728-11.776 14.848-16.896 12.8-13.312 26.112-26.112 39.424-39.424 16.384-16.384 34.816-17.408 49.152-2.56 14.336 14.336 13.312 32.768-2.56 48.64-16.384 16.384-32.256 32.768-48.64 49.152-2.048 2.048-3.584 4.096-6.144 6.656 10.24 10.24 20.48 20.48 30.72 30.208 9.216 9.216 18.944 18.432 28.16 28.16 11.776 13.312 10.752 32.256-2.56 45.568z m642.048-276.48c0-28.672-30.72-57.344-57.344-57.344H602.112c-29.696 0-57.344 30.208-57.344 57.344v344.576c0 25.088 28.672 57.344 57.344 57.344h344.576c40.448 0 57.344-27.136 57.344-69.12 0.512-99.84 0.512-233.472 0-332.8z m-143.36 258.048h-169.984c-22.528 0-30.72-13.312-30.72-28.672 0-16.384 13.824-28.672 28.672-28.672h172.032c14.336 0 28.672 11.776 28.672 28.672 0 15.872-17.408 28.672-28.672 28.672z m0-114.688c-64.512 0.512-85.504 0-172.032 0-11.264 0-28.672-11.776-28.672-28.672 0-15.872 13.824-28.672 24.576-28.672h176.128c13.824 0.512 28.672 14.848 28.672 28.672 0 14.336-14.848 28.672-28.672 28.672z" p-id="4930"></path></svg>